<svg width="26" height="27" viewBox="0 0 26 27" fill="none" xmlns="http://www.w3.org/2000/svg">
<path d="M16.7917 7.16485C17.9834 7.16485 18.9584 6.18985 18.9584 4.99817C18.9584 3.80648 17.9834 2.83148 16.7917 2.83148C15.6 2.83148 14.625 3.80648 14.625 4.99817C14.625 6.18985 15.6 7.16485 16.7917 7.16485Z" fill="#7FC4DC"/>
<path d="M5.41668 14.2065C2.4375 14.2065 0 16.644 0 19.6232C0 22.6023 2.4375 25.0398 5.41668 25.0398C8.39587 25.0398 10.8334 22.6023 10.8334 19.6232C10.8334 16.644 8.39582 14.2065 5.41668 14.2065ZM5.41668 23.4148C3.30418 23.4148 1.625 21.7357 1.625 19.6232C1.625 17.5107 3.30418 15.8315 5.41668 15.8315C7.52918 15.8315 9.20837 17.5107 9.20837 19.6232C9.20837 21.7357 7.52918 23.4148 5.41668 23.4148Z" fill="#7FC4DC"/>
<path d="M20.5292 13.069V10.9023C18.9042 10.9023 17.55 10.3065 16.575 9.33149L14.4625 7.27317C14.1375 6.89399 13.5958 6.62317 13 6.62317C12.4042 6.62317 11.8625 6.83985 11.4833 7.27317L8.50414 10.2524C8.12496 10.6315 7.85414 11.1732 7.85414 11.769C7.85414 12.3649 8.12496 12.9065 8.50414 13.3399L11.9166 16.3732V21.7899H14.0833V15.019L11.7 12.6357L14.2458 10.0357L15.0583 10.8482C16.4125 12.2565 18.3083 13.069 20.5292 13.069Z" fill="#7FC4DC"/>
<path d="M20.5833 14.2065C17.6041 14.2065 15.1666 16.644 15.1666 19.6232C15.1666 22.6023 17.6041 25.0398 20.5833 25.0398C23.5625 25.0398 26 22.6023 26 19.6232C26 16.644 23.5625 14.2065 20.5833 14.2065ZM20.5833 23.4148C18.4708 23.4148 16.7916 21.7357 16.7916 19.6232C16.7916 17.5107 18.4708 15.8315 20.5833 15.8315C22.6958 15.8315 24.375 17.5107 24.375 19.6232C24.375 21.7357 22.6958 23.4148 20.5833 23.4148Z" fill="#7FC4DC"/>
</svg>
