<svg width="24" height="25" viewBox="0 0 24 25" fill="none" xmlns="http://www.w3.org/2000/svg">
<g clip-path="url(#clip0_47_205)">
<path d="M23.9135 22.3221L23.3172 8.00943C23.2585 6.60065 22.0636 5.45442 20.6535 5.45442H18.7207V3.89817C18.7207 2.26462 17.3917 0.935669 15.7582 0.935669C14.1247 0.935669 12.7957 2.26467 12.7957 3.89817V5.45442H10.8629C9.68586 5.45442 8.66417 6.13617 8.3293 7.06069H13.1223C14.1652 7.06069 15.1632 7.46367 15.9324 8.19534C16.7016 8.92706 17.1538 9.90365 17.2058 10.9452L17.771 22.2469C17.8206 23.2404 17.5053 24.1849 16.8809 24.9357H21.4067C22.1009 24.9357 22.7451 24.6626 23.2208 24.1667C23.6964 23.6708 23.9424 23.0157 23.9135 22.3221ZM17.3145 5.45442H14.202V3.89817C14.202 3.04003 14.9001 2.34192 15.7582 2.34192C16.6163 2.34192 17.3145 3.04008 17.3145 3.89817V5.45442Z" fill="#7FC4DC"/>
<path d="M15.8013 11.0154C15.7312 9.61018 14.5294 8.46695 13.1223 8.46695H3.33163C1.92454 8.46695 0.72276 9.61023 0.652588 11.0154L0.0874635 22.3171C0.052776 23.0115 0.294089 23.6678 0.76701 24.1649C1.23993 24.6619 1.88329 24.9357 2.57854 24.9357H13.8754C14.5707 24.9357 15.214 24.6619 15.6869 24.1649C16.1599 23.6678 16.4012 23.0115 16.3665 22.317L15.8013 11.0154ZM11.1894 13.6888C11.1894 15.3223 9.86048 16.6513 8.22698 16.6513C6.59348 16.6513 5.26453 15.3223 5.26453 13.6888V11.4294C5.26453 11.0411 5.57929 10.7263 5.96765 10.7263C6.35592 10.7263 6.67078 11.0411 6.67078 11.4294V13.6888C6.67078 14.5469 7.36889 15.245 8.22698 15.245C9.08512 15.245 9.78318 14.5469 9.78318 13.6888V11.4294C9.78318 11.0411 10.098 10.7263 10.4863 10.7263C10.8747 10.7263 11.1894 11.0411 11.1894 11.4294V13.6888Z" fill="#7FC4DC"/>
</g>
<defs>
<clipPath id="clip0_47_205">
<rect width="24" height="24" fill="white" transform="translate(0 0.935669)"/>
</clipPath>
</defs>
</svg>
