<svg width="26" height="26" viewBox="0 0 26 26" fill="none" xmlns="http://www.w3.org/2000/svg">
<g clip-path="url(#clip0_32_533)">
<path d="M7.85522 18.0809C7.16769 17.6866 6.70312 16.9457 6.70312 16.0977C6.70312 12.5975 9.55064 9.75 13.0508 9.75H15.6666L15.7898 7.71875H0.968018L2.03264 25.2843C2.05704 25.6864 2.39009 26 2.79297 26H7.46683C6.98758 25.3631 6.70312 24.5716 6.70312 23.7148C6.70312 22.7272 7.33313 21.8839 8.21228 21.5656C7.90065 21.0877 7.71875 20.518 7.71875 19.9062C7.71875 19.2939 7.90105 18.7236 8.21327 18.2453C7.96492 18.1894 7.82706 18.1345 7.85522 18.0809Z" fill="#7FC2DA"/>
<path d="M8.37811 6.19551C8.37871 6.19551 8.3793 6.19531 8.3799 6.19531H15.9961C16.4168 6.19531 16.7578 5.85432 16.7578 5.43359C16.7578 5.01286 16.4168 4.67188 15.9961 4.67188H9.78511L11.8384 1.52344H14.4727C14.8934 1.52344 15.2344 1.18245 15.2344 0.761719C15.2344 0.340988 14.8934 0 14.4727 0H11.4258C11.1683 0 10.9283 0.129929 10.7878 0.345551L7.96631 4.67188H0.761719C0.340988 4.67188 0 5.01286 0 5.43359C0 5.85432 0.340988 6.19531 0.761719 6.19531H8.37534C8.37633 6.19531 8.37732 6.19551 8.37811 6.19551Z" fill="#7FC2DA"/>
<path d="M8.22656 16.0977C8.22656 16.5184 8.56755 16.8594 8.98828 16.8594H25.2383C25.659 16.8594 26 16.5184 26 16.0977C26 13.4376 23.8358 11.2734 21.1758 11.2734H13.0508C10.3907 11.2734 8.22656 13.4376 8.22656 16.0977Z" fill="#7FC2DA"/>
<path d="M10.7656 18.3828C9.92416 18.3828 9.24219 19.0648 9.24219 19.9062C9.24219 20.7477 9.92416 21.4297 10.7656 21.4297H23.4609C24.3024 21.4297 24.9844 20.7477 24.9844 19.9062C24.9844 19.0648 24.3024 18.3828 23.4609 18.3828H10.7656Z" fill="#7FC2DA"/>
<path d="M25.2383 22.9531H8.98828C8.56755 22.9531 8.22656 23.2941 8.22656 23.7148C8.22656 24.9749 9.25171 26 10.5117 26H23.7148C24.9749 26 26 24.9749 26 23.7148C26 23.2941 25.659 22.9531 25.2383 22.9531Z" fill="#7FC2DA"/>
</g>
<defs>
<clipPath id="clip0_32_533">
<rect width="26" height="26" fill="white"/>
</clipPath>
</defs>
</svg>
